<?xml version="1.0" standalone="no"?>
<!DOCTYPE svg PUBLIC "-//W3C//DTD SVG 20010904//EN"
 "http://www.w3.org/TR/2001/REC-SVG-20010904/DTD/svg10.dtd">
<svg version="1.0" xmlns="http://www.w3.org/2000/svg"
 width="64.000000pt" height="64.000000pt" viewBox="0 0 64.000000 64.000000"
 preserveAspectRatio="xMidYMid meet">

<g transform="translate(0.000000,64.000000) scale(0.100000,-0.100000)"
fill="#000000" stroke="none">
<path d="M258 623 c0 -4 -2 -12 -2 -18 -2 -13 -48 -65 -58 -65 -4 0 -8 7 -8
15 0 11 -11 15 -40 15 l-40 0 0 -90 0 -90 40 0 c22 0 40 5 40 10 0 6 4 10 10
10 5 0 1 -15 -10 -32 -43 -70 -12 -153 67 -179 107 -35 208 89 145 179 -16 22
-18 43 -16 120 2 71 0 92 -11 92 -7 0 -12 8 -11 18 1 14 -9 18 -51 20 -29 2
-54 -1 -55 -5z m49 -35 c-3 12 -1 22 4 22 5 0 9 -8 9 -17 0 -15 2 -14 15 3 17
23 19 17 4 -25 -15 -43 -41 -40 -56 6 l-11 37 20 -24 c19 -25 20 -25 15 -2z
m-30 -38 c6 -22 34 -34 62 -25 11 3 22 2 25 -3 3 -6 -4 -13 -17 -17 l-22 -8
23 -4 c12 -2 22 -8 22 -13 0 -5 -10 -11 -22 -13 l-23 -4 23 -8 c30 -10 28 -25
-5 -26 -24 -2 -25 -2 -5 -6 12 -2 22 -9 22 -15 0 -10 -73 -6 -137 7 -32 7 -33
8 -33 61 0 41 4 54 15 54 8 0 20 9 27 20 16 26 38 26 45 0z m93 10 c0 -5 -4
-10 -10 -10 -5 0 -10 5 -10 10 0 6 5 10 10 10 6 0 10 -4 10 -10z m-200 -85 c0
-68 -2 -75 -20 -75 -18 0 -20 7 -20 75 0 68 2 75 20 75 18 0 20 -7 20 -75z
m64 -105 c-4 -19 -2 -30 5 -30 6 0 11 9 11 19 0 26 11 32 46 22 19 -5 30 -15
32 -29 2 -12 7 -20 12 -17 4 3 6 15 3 28 -4 21 -4 21 12 -3 l16 -25 -6 28 c-7
37 11 34 31 -4 54 -105 -88 -200 -178 -120 -26 23 -33 37 -32 67 0 38 27 94
45 94 5 0 6 -13 3 -30z"/>
<path d="M287 324 c-13 -13 -7 -43 11 -54 16 -11 16 -11 -1 -6 -13 4 -18 1
-15 -11 5 -25 25 -27 33 -2 5 16 2 27 -11 37 -18 14 -18 14 -1 8 14 -4 18 -2
15 11 -3 18 -20 27 -31 17z"/>
<path d="M172 172 c-13 -4 -23 -11 -23 -17 -1 -5 27 -29 61 -53 60 -40 65 -42
129 -40 65 3 66 3 69 -24 3 -26 6 -28 52 -28 55 0 50 -9 65 113 l6 47 -40 0
c-21 0 -41 -5 -43 -12 -3 -7 -13 -5 -32 7 -25 16 -34 17 -72 7 -31 -8 -51 -9
-64 -2 -20 11 -72 12 -108 2z m36 -32 c21 -13 48 -19 75 -18 37 1 38 2 10 5
-55 7 -37 20 38 27 63 7 74 5 91 -11 16 -16 17 -24 8 -47 -8 -22 -13 -26 -24
-17 -8 7 -35 9 -73 5 -57 -6 -62 -5 -116 31 -31 21 -57 39 -57 41 0 9 17 3 48
-16z m27 10 c3 -6 -1 -7 -9 -4 -18 7 -21 14 -7 14 6 0 13 -4 16 -10z m275 -14
c0 -7 -3 -34 -6 -60 -6 -44 -8 -46 -40 -46 -39 0 -38 -4 -18 66 13 46 19 54
40 54 14 0 24 -6 24 -14z"/>
</g>
</svg>
